<svg width="420" height="130" viewBox="0 0 420 130" xmlns="http://www.w3.org/2000/svg" role="img" aria-labelledby="title desc">
  <title id="title">CleanAir Tracker</title>
  <desc id="desc">Air quality monitoring</desc>
  <defs>
    <linearGradient id="bg" x1="0" y1="0" x2="1" y2="1">
      <stop offset="0%" stop-color="#0EA5E9"/>
      <stop offset="100%" stop-color="#1D4ED8"/>
    </linearGradient>
    <filter id="soft" x="-20%" y="-20%" width="140%" height="140%">
      <feGaussianBlur stdDeviation="6"/>
    </filter>
  </defs>
  <rect x="0" y="0" width="420" height="130" rx="18" fill="url(#bg)"/>
  <g fill="#fff" opacity="0.18" filter="url(#soft)">
    <path d="M60 85c20-30 60-30 80 0 18-10 40-10 55 8 25 0 35 15 35 15H40s10-12 20-23z"/>
    <path d="M280 45c18-18 48-18 66 0 8-4 16-4 24 2 14 0 22 10 22 10h-120s4-6 8-12z"/>
  </g>
  <g fill="#EAF4FF">
    <text x="26" y="56" font-size="22" font-weight="700" font-family="Segoe UI, Roboto, Ubuntu, Arial, sans-serif">CleanAir Tracker</text>
    <text x="26" y="86" font-size="13" opacity="0.9" font-family="Segoe UI, Roboto, Ubuntu, Arial, sans-serif">Air quality monitoring</text>
  </g>
  <g transform="translate(365,42)">
    <path d="M20 0 C10 10 0 22 0 34 a20 20 0 0 0 40 0 C40 22 30 10 20 0z" fill="#ffffff" opacity="0.85"/>
  </g>
</svg>
