<svg width="420" height="130" viewBox="0 0 420 130" xmlns="http://www.w3.org/2000/svg" role="img" aria-labelledby="title desc">
  <title id="title">Traffic Simulation</title>
  <desc id="desc">Interactive traffic simulation visuals</desc>
  <defs>
    <linearGradient id="bg" x1="0" y1="0" x2="1" y2="1">
      <stop offset="0%" stop-color="#16A34A"/>
      <stop offset="100%" stop-color="#065F46"/>
    </linearGradient>
  </defs>
  <rect x="0" y="0" width="420" height="130" rx="18" fill="url(#bg)"/>
  
  <!-- road with dashed lines -->
  <g opacity="0.25">
    <rect x="230" y="50" width="180" height="4" fill="#FFF" rx="2"/>
    <rect x="240" y="65" width="12" height="2" fill="#FFF"/>
    <rect x="260" y="65" width="12" height="2" fill="#FFF"/>
    <rect x="280" y="65" width="12" height="2" fill="#FFF"/>
    <rect x="300" y="65" width="12" height="2" fill="#FFF"/>
    <rect x="320" y="65" width="12" height="2" fill="#FFF"/>
    <rect x="340" y="65" width="12" height="2" fill="#FFF"/>
    <rect x="360" y="65" width="12" height="2" fill="#FFF"/>
    <rect x="380" y="65" width="12" height="2" fill="#FFF"/>
    <rect x="230" y="80" width="180" height="4" fill="#FFF" rx="2"/>
  </g>
  
  <!-- cars -->
  <g opacity="0.9">
    <!-- car 1 -->
    <rect x="270" y="52" width="32" height="18" rx="3" fill="#38BDF8"/>
    <rect x="273" y="56" width="6" height="6" rx="1" fill="#E0F2FE"/>
    <rect x="291" y="56" width="6" height="6" rx="1" fill="#E0F2FE"/>
    <circle cx="277" cy="71" r="3" fill="#1E293B"/>
    <circle cx="295" cy="71" r="3" fill="#1E293B"/>
    
    <!-- car 2 -->
    <rect x="340" y="82" width="28" height="16" rx="3" fill="#FCD34D"/>
    <rect x="343" y="85" width="5" height="5" rx="1" fill="#FEF3C7"/>
    <rect x="359" y="85" width="5" height="5" rx="1" fill="#FEF3C7"/>
    <circle cx="346" cy="99" r="2.5" fill="#1E293B"/>
    <circle cx="362" cy="99" r="2.5" fill="#1E293B"/>
  </g>
  
  <g fill="#E8FFF2">
    <text x="26" y="56" font-size="22" font-weight="700" font-family="Segoe UI, Roboto, Ubuntu, Arial, sans-serif">Traffic Simulation</text>
    <text x="26" y="86" font-size="13" opacity="0.9" font-family="Segoe UI, Roboto, Ubuntu, Arial, sans-serif">Agent‑based flows and dynamics</text>
  </g>
</svg>
